# xmcd
#
# Track frame offsets:
#	150
#	21527
#	38022
#	55265
#	68382
#	91631
#	109604
#	124931
#	146182
#	156785
#	165136
#	177686
#
# Disc length: 2634 seconds
#
# Revision: 0
# Processed by: cddbd v1.4PL0 Copyright (c) Steve Scherf et al.
# Submitted via: EasyCDDAExtractor 4.6.9.1
#
DISCID=980a480c
DTITLE=Los Autenticos Decadentes
DYEAR=2000
DGENRE=Rock
TTITLE0=Corazon
TTITLE1=La Guitarra
TTITLE2=Me Mori de Risa
TTITLE3=La Marcha de la Gorra
TTITLE4=Loco (Tu Forma de Ser)
TTITLE5=Ya Me Da Igual
TTITLE6=Como Me Voy Al Olvidar
TTITLE7=Mil Noches
TTITLE8=Entrega al Marron
TTITLE9=La Marcha Decadente
TTITLE10=Veni Raquel
TTITLE11=Se Va Como La Vida
EXTD=
EXTT0=
EXTT1=
EXTT2=
EXTT3=
EXTT4=
EXTT5=
EXTT6=
EXTT7=
EXTT8=
EXTT9=
EXTT10=
EXTT11=
PLAYORDER=
